<svg xmlns="http://www.w3.org/2000/svg" width="1200" height="630">
    <path d="M575.9,261.2L622.5,213.8L584.6,206.6Z" fill="rgb(145,180,214)" shape-rendering="crispEdges" />
    <path d="M575.9,261.2L657.5,282.9L622.5,213.8Z" fill="rgb(134,175,211)" shape-rendering="crispEdges" />
    <path d="M715.3,131.6L618.8,146.3L622.5,213.8Z" fill="rgb(154,184,215)" shape-rendering="crispEdges" />
    <path d="M622.5,213.8L618.8,146.3L584.6,206.6Z" fill="rgb(154,184,216)" shape-rendering="crispEdges" />
    <path d="M476.5,222.6L511.7,269.9L584.6,206.6Z" fill="rgb(155,184,216)" shape-rendering="crispEdges" />
    <path d="M584.6,206.6L511.7,269.9L575.9,261.2Z" fill="rgb(146,181,214)" shape-rendering="crispEdges" />
    <path d="M575.9,261.2L646.3,370.3L657.5,282.9Z" fill="rgb(115,168,206)" shape-rendering="crispEdges" />
    <path d="M657.5,282.9L702.9,263L622.5,213.8Z" fill="rgb(127,172,209)" shape-rendering="crispEdges" />
    <path d="M511.7,269.9L538.3,341.3L575.9,261.2Z" fill="rgb(134,176,211)" shape-rendering="crispEdges" />
    <path d="M657.5,282.9L705,361.3L702.9,263Z" fill="rgb(105,163,204)" shape-rendering="crispEdges" />
    <path d="M493.8,115.1L476.5,222.6L584.6,206.6Z" fill="rgb(170,191,220)" shape-rendering="crispEdges" />
    <path d="M511.7,269.9L468.7,337.9L538.3,341.3Z" fill="rgb(132,175,211)" shape-rendering="crispEdges" />
    <path d="M618.8,146.3L584.8,113.5L584.6,206.6Z" fill="rgb(165,189,219)" shape-rendering="crispEdges" />
    <path d="M702.9,263L725.4,220.7L622.5,213.8Z" fill="rgb(130,172,209)" shape-rendering="crispEdges" />
    <path d="M618.8,146.3L631.8,37.1L584.8,113.5Z" fill="rgb(173,196,222)" shape-rendering="crispEdges" />
    <path d="M538.3,341.3L646.3,370.3L575.9,261.2Z" fill="rgb(115,168,207)" shape-rendering="crispEdges" />
    <path d="M702.9,263L772.8,290.4L725.4,220.7Z" fill="rgb(113,165,205)" shape-rendering="crispEdges" />
    <path d="M725.4,220.7L715.3,131.6L622.5,213.8Z" fill="rgb(142,177,212)" shape-rendering="crispEdges" />
    <path d="M584.8,113.5L493.8,115.1L584.6,206.6Z" fill="rgb(173,194,221)" shape-rendering="crispEdges" />
    <path d="M646.3,370.3L705,361.3L657.5,282.9Z" fill="rgb(96,159,201)" shape-rendering="crispEdges" />
    <path d="M419,288.2L468.7,337.9L511.7,269.9Z" fill="rgb(144,180,214)" shape-rendering="crispEdges" />
    <path d="M538.3,341.3L611.8,411.9L646.3,370.3Z" fill="rgb(96,160,201)" shape-rendering="crispEdges" />
    <path d="M576,430.8L611.8,411.9L538.3,341.3Z" fill="rgb(94,158,200)" shape-rendering="crispEdges" />
    <path d="M646.3,370.3L704.6,441.7L705,361.3Z" fill="rgb(72,150,195)" shape-rendering="crispEdges" />
    <path d="M705,361.3L772.8,290.4L702.9,263Z" fill="rgb(97,160,201)" shape-rendering="crispEdges" />
    <path d="M725.4,220.7L801.4,146.8L715.3,131.6Z" fill="rgb(139,175,211)" shape-rendering="crispEdges" />
    <path d="M386.3,230L419,288.2L476.5,222.6Z" fill="rgb(166,189,219)" shape-rendering="crispEdges" />
    <path d="M476.5,222.6L419,288.2L511.7,269.9Z" fill="rgb(156,185,216)" shape-rendering="crispEdges" />
    <path d="M419,288.2L433.2,335.4L468.7,337.9Z" fill="rgb(142,179,213)" shape-rendering="crispEdges" />
    <path d="M500.6,421.1L576,430.8L538.3,341.3Z" fill="rgb(101,160,202)" shape-rendering="crispEdges" />
    <path d="M500.6,421.1L538.3,341.3L468.7,337.9Z" fill="rgb(117,167,206)" shape-rendering="crispEdges" />
    <path d="M715.3,131.6L631.8,37.1L618.8,146.3Z" fill="rgb(165,191,220)" shape-rendering="crispEdges" />
    <path d="M584.8,113.5L506.4,29.8L493.8,115.1Z" fill="rgb(188,203,227)" shape-rendering="crispEdges" />
    <path d="M631.8,37.1L588.5,29.9L584.8,113.5Z" fill="rgb(180,201,225)" shape-rendering="crispEdges" />
    <path d="M431.6,414.7L500.6,421.1L468.7,337.9Z" fill="rgb(115,166,205)" shape-rendering="crispEdges" />
    <path d="M388.7,150.3L386.3,230L476.5,222.6Z" fill="rgb(180,196,223)" shape-rendering="crispEdges" />
    <path d="M362.2,426.3L431.6,414.7L433.2,335.4Z" fill="rgb(125,169,207)" shape-rendering="crispEdges" />
    <path d="M772.8,290.4L815.5,205.8L725.4,220.7Z" fill="rgb(115,164,204)" shape-rendering="crispEdges" />
    <path d="M715.3,131.6L719.7,39.9L631.8,37.1Z" fill="rgb(166,193,221)" shape-rendering="crispEdges" />
    <path d="M815.5,205.8L801.4,146.8L725.4,220.7Z" fill="rgb(129,168,207)" shape-rendering="crispEdges" />
    <path d="M588.5,29.9L506.4,29.8L584.8,113.5Z" fill="rgb(187,204,227)" shape-rendering="crispEdges" />
    <path d="M493.8,115.1L388.7,150.3L476.5,222.6Z" fill="rgb(185,198,224)" shape-rendering="crispEdges" />
    <path d="M428.7,38.7L388.7,150.3L493.8,115.1Z" fill="rgb(199,208,229)" shape-rendering="crispEdges" />
    <path d="M611.8,411.9L704.6,441.7L646.3,370.3Z" fill="rgb(75,149,195)" shape-rendering="crispEdges" />
    <path d="M705,361.3L798.4,372.7L772.8,290.4Z" fill="rgb(77,151,197)" shape-rendering="crispEdges" />
    <path d="M772.8,290.4L834.8,277.2L815.5,205.8Z" fill="rgb(106,157,201)" shape-rendering="crispEdges" />
    <path d="M618.3,482.3L704.6,441.7L611.8,411.9Z" fill="rgb(71,142,192)" shape-rendering="crispEdges" />
    <path d="M795.7,66.3L719.7,39.9L715.3,131.6Z" fill="rgb(157,187,217)" shape-rendering="crispEdges" />
    <path d="M635.9,-27.6L553.8,-14.8L588.5,29.9Z" fill="rgb(189,208,229)" shape-rendering="crispEdges" />
    <path d="M854.3,326.1L834.8,277.2L772.8,290.4Z" fill="rgb(90,151,197)" shape-rendering="crispEdges" />
    <path d="M858.1,108.5L795.7,66.3L801.4,146.8Z" fill="rgb(145,175,211)" shape-rendering="crispEdges" />
    <path d="M704.6,441.7L798.4,372.7L705,361.3Z" fill="rgb(59,145,193)" shape-rendering="crispEdges" />
    <path d="M510.9,515L586.5,480.2L576,430.8Z" fill="rgb(85,142,193)" shape-rendering="crispEdges" />
    <path d="M576,430.8L618.3,482.3L611.8,411.9Z" fill="rgb(81,146,195)" shape-rendering="crispEdges" />
    <path d="M433.2,335.4L431.6,414.7L468.7,337.9Z" fill="rgb(128,172,209)" shape-rendering="crispEdges" />
    <path d="M500.6,421.1L510.9,515L576,430.8Z" fill="rgb(94,148,196)" shape-rendering="crispEdges" />
    <path d="M315.4,305L433.2,335.4L419,288.2Z" fill="rgb(153,184,216)" shape-rendering="crispEdges" />
    <path d="M586.5,480.2L618.3,482.3L576,430.8Z" fill="rgb(79,142,193)" shape-rendering="crispEdges" />
    <path d="M635.9,-27.6L588.5,29.9L631.8,37.1Z" fill="rgb(184,204,227)" shape-rendering="crispEdges" />
    <path d="M588.5,29.9L553.8,-14.8L506.4,29.8Z" fill="rgb(194,209,230)" shape-rendering="crispEdges" />
    <path d="M872.4,191L801.4,146.8L815.5,205.8Z" fill="rgb(128,164,205)" shape-rendering="crispEdges" />
    <path d="M801.4,146.8L795.7,66.3L715.3,131.6Z" fill="rgb(147,179,213)" shape-rendering="crispEdges" />
    <path d="M429.6,-2.3L428.7,38.7L506.4,29.8Z" fill="rgb(207,215,234)" shape-rendering="crispEdges" />
    <path d="M506.4,29.8L428.7,38.7L493.8,115.1Z" fill="rgb(199,210,230)" shape-rendering="crispEdges" />
    <path d="M706,-37.6L631.8,37.1L719.7,39.9Z" fill="rgb(174,199,224)" shape-rendering="crispEdges" />
    <path d="M706,-37.6L635.9,-27.6L631.8,37.1Z" fill="rgb(179,202,226)" shape-rendering="crispEdges" />
    <path d="M798.4,372.7L854.3,326.1L772.8,290.4Z" fill="rgb(78,148,195)" shape-rendering="crispEdges" />
    <path d="M834.8,277.2L872.4,191L815.5,205.8Z" fill="rgb(114,157,201)" shape-rendering="crispEdges" />
    <path d="M912.1,179.7L872.4,191L945.4,304.1Z" fill="rgb(109,150,197)" shape-rendering="crispEdges" />
    <path d="M357.1,47.4L334.6,136.6L388.7,150.3Z" fill="rgb(208,211,231)" shape-rendering="crispEdges" />
    <path d="M388.7,150.3L311.2,193.7L386.3,230Z" fill="rgb(191,201,225)" shape-rendering="crispEdges" />
    <path d="M386.3,230L315.4,305L419,288.2Z" fill="rgb(166,189,219)" shape-rendering="crispEdges" />
    <path d="M618.3,482.3L733.4,485.4L704.6,441.7Z" fill="rgb(57,134,188)" shape-rendering="crispEdges" />
    <path d="M704.6,441.7L806.2,429.3L798.4,372.7Z" fill="rgb(48,138,189)" shape-rendering="crispEdges" />
    <path d="M798.4,372.7L857,439.2L854.3,326.1Z" fill="rgb(53,137,189)" shape-rendering="crispEdges" />
    <path d="M733.4,485.4L806.2,429.3L704.6,441.7Z" fill="rgb(42,132,186)" shape-rendering="crispEdges" />
    <path d="M872.4,191L858.1,108.5L801.4,146.8Z" fill="rgb(136,166,207)" shape-rendering="crispEdges" />
    <path d="M334.6,136.6L311.2,193.7L388.7,150.3Z" fill="rgb(201,206,228)" shape-rendering="crispEdges" />
    <path d="M311.2,193.7L315.4,305L386.3,230Z" fill="rgb(180,196,223)" shape-rendering="crispEdges" />
    <path d="M431.6,414.7L510.9,515L500.6,421.1Z" fill="rgb(104,152,199)" shape-rendering="crispEdges" />
    <path d="M586.5,480.2L586.5,552.4L618.3,482.3Z" fill="rgb(75,135,184)" shape-rendering="crispEdges" />
    <path d="M618.3,482.3L636.9,576.9L733.4,485.4Z" fill="rgb(60,129,179)" shape-rendering="crispEdges" />
    <path d="M411.7,528.3L510.9,515L431.6,414.7Z" fill="rgb(105,147,194)" shape-rendering="crispEdges" />
    <path d="M490.9,-38.3L429.6,-2.3L506.4,29.8Z" fill="rgb(207,216,234)" shape-rendering="crispEdges" />
    <path d="M428.7,38.7L357.1,47.4L388.7,150.3Z" fill="rgb(209,214,233)" shape-rendering="crispEdges" />
    <path d="M490.9,-38.3L506.4,29.8L553.8,-14.8Z" fill="rgb(201,213,232)" shape-rendering="crispEdges" />
    <path d="M775.2,-4.5L719.7,39.9L795.7,66.3Z" fill="rgb(160,189,219)" shape-rendering="crispEdges" />
    <path d="M775.2,-4.5L706,-37.6L719.7,39.9Z" fill="rgb(168,196,222)" shape-rendering="crispEdges" />
    <path d="M552.4,-101.9L490.9,-38.3L553.8,-14.8Z" fill="rgb(198,212,232)" shape-rendering="crispEdges" />
    <path d="M552.4,-101.9L553.8,-14.8L635.9,-27.6Z" fill="rgb(191,209,230)" shape-rendering="crispEdges" />
    <path d="M870,-12.8L775.2,-4.5L795.7,66.3Z" fill="rgb(159,185,217)" shape-rendering="crispEdges" />
    <path d="M323.7,368L362.2,426.3L433.2,335.4Z" fill="rgb(135,174,210)" shape-rendering="crispEdges" />
    <path d="M315.4,305L323.7,368L433.2,335.4Z" fill="rgb(150,182,214)" shape-rendering="crispEdges" />
    <path d="M429.6,-2.3L357.1,47.4L428.7,38.7Z" fill="rgb(214,218,235)" shape-rendering="crispEdges" />
    <path d="M248.3,153.6L255.6,208.5L311.2,193.7Z" fill="rgb(203,207,229)" shape-rendering="crispEdges" />
    <path d="M964.4,133.2L865.3,76.2L858.1,108.5Z" fill="rgb(140,166,207)" shape-rendering="crispEdges" />
    <path d="M858.1,108.5L865.3,76.2L795.7,66.3Z" fill="rgb(148,176,212)" shape-rendering="crispEdges" />
    <path d="M510.9,515L586.5,552.4L586.5,480.2Z" fill="rgb(82,136,183)" shape-rendering="crispEdges" />
    <path d="M945.4,304.1L872.4,191L834.8,277.2Z" fill="rgb(100,149,197)" shape-rendering="crispEdges" />
    <path d="M872.4,191L912.1,179.7L858.1,108.5Z" fill="rgb(131,161,204)" shape-rendering="crispEdges" />
    <path d="M311.2,193.7L282.7,303.7L315.4,305Z" fill="rgb(178,195,222)" shape-rendering="crispEdges" />
    <path d="M315.4,305L282.7,303.7L323.7,368Z" fill="rgb(160,187,217)" shape-rendering="crispEdges" />
    <path d="M770.8,593.6L797.1,493.5L733.4,485.4Z" fill="rgb(32,119,171)" shape-rendering="crispEdges" />
    <path d="M733.4,485.4L797.1,493.5L806.2,429.3Z" fill="rgb(33,125,183)" shape-rendering="crispEdges" />
    <path d="M806.2,429.3L857,439.2L798.4,372.7Z" fill="rgb(42,132,186)" shape-rendering="crispEdges" />
    <path d="M854.3,326.1L945.4,304.1L834.8,277.2Z" fill="rgb(83,144,194)" shape-rendering="crispEdges" />
    <path d="M834.5,497.4L857,439.2L806.2,429.3Z" fill="rgb(29,123,181)" shape-rendering="crispEdges" />
    <path d="M700.5,-97.8L661.1,-90.1L706,-37.6Z" fill="rgb(175,200,225)" shape-rendering="crispEdges" />
    <path d="M706,-37.6L661.1,-90.1L635.9,-27.6Z" fill="rgb(178,201,226)" shape-rendering="crispEdges" />
    <path d="M661.1,-90.1L552.4,-101.9L635.9,-27.6Z" fill="rgb(186,206,228)" shape-rendering="crispEdges" />
    <path d="M490.9,-38.3L468.5,-105.5L429.6,-2.3Z" fill="rgb(209,217,234)" shape-rendering="crispEdges" />
    <path d="M318.4,-4.4L290.4,44.2L357.1,47.4Z" fill="rgb(225,223,238)" shape-rendering="crispEdges" />
    <path d="M586.5,552.4L636.9,576.9L618.3,482.3Z" fill="rgb(69,129,176)" shape-rendering="crispEdges" />
    <path d="M510.9,515L515.2,569L586.5,552.4Z" fill="rgb(84,133,177)" shape-rendering="crispEdges" />
    <path d="M586.5,552.4L538.2,639.1L636.9,576.9Z" fill="rgb(70,120,160)" shape-rendering="crispEdges" />
    <path d="M425.1,581.3L515.2,569L510.9,515Z" fill="rgb(93,135,177)" shape-rendering="crispEdges" />
    <path d="M248.3,153.6L311.2,193.7L334.6,136.6Z" fill="rgb(207,209,230)" shape-rendering="crispEdges" />
    <path d="M311.2,193.7L255.6,208.5L282.7,303.7Z" fill="rgb(189,200,225)" shape-rendering="crispEdges" />
    <path d="M356.9,505.9L411.7,528.3L362.2,426.3Z" fill="rgb(117,152,197)" shape-rendering="crispEdges" />
    <path d="M362.2,426.3L411.7,528.3L431.6,414.7Z" fill="rgb(116,156,201)" shape-rendering="crispEdges" />
    <path d="M281,402.6L362.2,426.3L323.7,368Z" fill="rgb(137,173,210)" shape-rendering="crispEdges" />
    <path d="M766.9,-78L700.5,-97.8L706,-37.6Z" fill="rgb(169,196,223)" shape-rendering="crispEdges" />
    <path d="M661.1,-90.1L700.5,-97.8L552.4,-101.9Z" fill="rgb(182,204,227)" shape-rendering="crispEdges" />
    <path d="M766.9,-78L706,-37.6L775.2,-4.5Z" fill="rgb(166,194,222)" shape-rendering="crispEdges" />
    <path d="M770.8,593.6L834.5,497.4L797.1,493.5Z" fill="rgb(27,114,169)" shape-rendering="crispEdges" />
    <path d="M797.1,493.5L834.5,497.4L806.2,429.3Z" fill="rgb(27,121,180)" shape-rendering="crispEdges" />
    <path d="M959.8,329.4L854.3,326.1L925,446.6Z" fill="rgb(52,131,185)" shape-rendering="crispEdges" />
    <path d="M959.8,329.4L945.4,304.1L854.3,326.1Z" fill="rgb(74,138,189)" shape-rendering="crispEdges" />
    <path d="M870,-12.8L766.9,-78L775.2,-4.5Z" fill="rgb(161,188,219)" shape-rendering="crispEdges" />
    <path d="M236,333.4L323.7,368L282.7,303.7Z" fill="rgb(160,187,217)" shape-rendering="crispEdges" />
    <path d="M236,333.4L281,402.6L323.7,368Z" fill="rgb(151,182,214)" shape-rendering="crispEdges" />
    <path d="M290.4,44.2L248.3,153.6L334.6,136.6Z" fill="rgb(217,216,234)" shape-rendering="crispEdges" />
    <path d="M187.4,288.1L236,333.4L282.7,303.7Z" fill="rgb(172,194,222)" shape-rendering="crispEdges" />
    <path d="M252.7,484.1L356.9,505.9L362.2,426.3Z" fill="rgb(126,157,202)" shape-rendering="crispEdges" />
    <path d="M318.4,-4.4L357.1,47.4L429.6,-2.3Z" fill="rgb(220,222,237)" shape-rendering="crispEdges" />
    <path d="M357.1,47.4L290.4,44.2L334.6,136.6Z" fill="rgb(219,218,235)" shape-rendering="crispEdges" />
    <path d="M868.4,-121.7L468.5,-105.5L552.4,-101.9Z" fill="rgb(184,205,228)" shape-rendering="crispEdges" />
    <path d="M552.4,-101.9L468.5,-105.5L490.9,-38.3Z" fill="rgb(203,214,233)" shape-rendering="crispEdges" />
    <path d="M934.7,33.6L870,-12.8L865.3,76.2Z" fill="rgb(151,175,212)" shape-rendering="crispEdges" />
    <path d="M865.3,76.2L870,-12.8L795.7,66.3Z" fill="rgb(153,179,214)" shape-rendering="crispEdges" />
    <path d="M964.4,133.2L858.1,108.5L912.1,179.7Z" fill="rgb(133,160,203)" shape-rendering="crispEdges" />
    <path d="M364.8,-75.7L318.4,-4.4L429.6,-2.3Z" fill="rgb(222,223,238)" shape-rendering="crispEdges" />
    <path d="M925,446.6L854.3,326.1L857,439.2Z" fill="rgb(37,128,184)" shape-rendering="crispEdges" />
    <path d="M1039.6,230.6L964.4,133.2L912.1,179.7Z" fill="rgb(120,150,193)" shape-rendering="crispEdges" />
    <path d="M187.4,288.1L282.7,303.7L255.6,208.5Z" fill="rgb(184,199,225)" shape-rendering="crispEdges" />
    <path d="M708.9,649.2L701.9,600.4L622.3,673.8Z" fill="rgb(47,104,142)" shape-rendering="crispEdges" />
    <path d="M636.9,576.9L701.9,600.4L733.4,485.4Z" fill="rgb(51,120,168)" shape-rendering="crispEdges" />
    <path d="M1000.2,276.2L912.1,179.7L945.4,304.1Z" fill="rgb(98,143,190)" shape-rendering="crispEdges" />
    <path d="M364.4,600.4L425.1,581.3L411.7,528.3Z" fill="rgb(105,136,174)" shape-rendering="crispEdges" />
    <path d="M411.7,528.3L425.1,581.3L510.9,515Z" fill="rgb(101,139,182)" shape-rendering="crispEdges" />
    <path d="M515.2,569L538.2,639.1L586.5,552.4Z" fill="rgb(78,123,163)" shape-rendering="crispEdges" />
    <path d="M951.9,478.4L925,446.6L834.5,497.4Z" fill="rgb(5,111,175)" shape-rendering="crispEdges" />
    <path d="M834.5,497.4L925,446.6L857,439.2Z" fill="rgb(19,117,179)" shape-rendering="crispEdges" />
    <path d="M388.4,-105.3L364.8,-75.7L429.6,-2.3Z" fill="rgb(219,221,237)" shape-rendering="crispEdges" />
    <path d="M964.4,133.2L934.7,33.6L865.3,76.2Z" fill="rgb(143,167,206)" shape-rendering="crispEdges" />
    <path d="M701.9,600.4L770.8,593.6L733.4,485.4Z" fill="rgb(38,116,164)" shape-rendering="crispEdges" />
    <path d="M992.7,402.8L984.7,336.2L959.8,329.4Z" fill="rgb(56,127,178)" shape-rendering="crispEdges" />
    <path d="M959.8,329.4L1000.2,276.2L945.4,304.1Z" fill="rgb(79,136,184)" shape-rendering="crispEdges" />
    <path d="M468.5,-105.5L388.4,-105.3L429.6,-2.3Z" fill="rgb(214,219,236)" shape-rendering="crispEdges" />
    <path d="M984.7,336.2L1000.2,276.2L959.8,329.4Z" fill="rgb(74,134,182)" shape-rendering="crispEdges" />
    <path d="M1039.6,230.6L987.3,126L964.4,133.2Z" fill="rgb(124,151,191)" shape-rendering="crispEdges" />
    <path d="M964.4,133.2L1011.9,68.6L934.7,33.6Z" fill="rgb(141,164,200)" shape-rendering="crispEdges" />
    <path d="M509.2,640.3L538.2,639.1L515.2,569Z" fill="rgb(79,118,153)" shape-rendering="crispEdges" />
    <path d="M701.9,600.4L708.9,649.2L770.8,593.6Z" fill="rgb(36,104,145)" shape-rendering="crispEdges" />
    <path d="M425.1,581.3L509.2,640.3L515.2,569Z" fill="rgb(88,125,162)" shape-rendering="crispEdges" />
    <path d="M164.7,187.2L187.4,288.1L255.6,208.5Z" fill="rgb(199,207,229)" shape-rendering="crispEdges" />
    <path d="M184.2,448.1L252.7,484.1L281,402.6Z" fill="rgb(140,169,208)" shape-rendering="crispEdges" />
    <path d="M281,402.6L252.7,484.1L362.2,426.3Z" fill="rgb(135,167,207)" shape-rendering="crispEdges" />
    <path d="M164.7,187.2L255.6,208.5L248.3,153.6Z" fill="rgb(208,211,231)" shape-rendering="crispEdges" />
    <path d="M318.4,-4.4L280.3,-39.1L290.4,44.2Z" fill="rgb(232,228,241)" shape-rendering="crispEdges" />
    <path d="M159.6,132.5L164.7,187.2L248.3,153.6Z" fill="rgb(218,217,234)" shape-rendering="crispEdges" />
    <path d="M364.8,-75.7L280.3,-39.1L318.4,-4.4Z" fill="rgb(229,226,240)" shape-rendering="crispEdges" />
    <path d="M237.9,-121.6L280.3,-39.1L364.8,-75.7Z" fill="rgb(232,228,241)" shape-rendering="crispEdges" />
    <path d="M1034.5,-7.8L929.5,-25.2L934.7,33.6Z" fill="rgb(151,171,205)" shape-rendering="crispEdges" />
    <path d="M934.7,33.6L929.5,-25.2L870,-12.8Z" fill="rgb(154,176,212)" shape-rendering="crispEdges" />
    <path d="M870,-12.8L868.4,-121.7L766.9,-78Z" fill="rgb(159,184,217)" shape-rendering="crispEdges" />
    <path d="M189.7,355.2L281,402.6L236,333.4Z" fill="rgb(156,185,216)" shape-rendering="crispEdges" />
    <path d="M356.9,505.9L364.4,600.4L411.7,528.3Z" fill="rgb(112,143,184)" shape-rendering="crispEdges" />
    <path d="M425.1,581.3L422.5,637.2L509.2,640.3Z" fill="rgb(90,121,155)" shape-rendering="crispEdges" />
    <path d="M187.4,288.1L189.7,355.2L236,333.4Z" fill="rgb(170,194,221)" shape-rendering="crispEdges" />
    <path d="M622.3,673.8L636.9,576.9L538.2,639.1Z" fill="rgb(63,110,145)" shape-rendering="crispEdges" />
    <path d="M622.3,673.8L701.9,600.4L636.9,576.9Z" fill="rgb(54,109,147)" shape-rendering="crispEdges" />
    <path d="M951.9,478.4L992.7,402.8L925,446.6Z" fill="rgb(20,114,172)" shape-rendering="crispEdges" />
    <path d="M925,446.6L992.7,402.8L959.8,329.4Z" fill="rgb(36,123,177)" shape-rendering="crispEdges" />
    <path d="M1073.4,272.6L1039.6,230.6L1000.2,276.2Z" fill="rgb(92,136,179)" shape-rendering="crispEdges" />
    <path d="M951.9,478.4L834.5,497.4L912.1,558.2Z" fill="rgb(5,107,167)" shape-rendering="crispEdges" />
    <path d="M858.7,599.1L834.5,497.4L770.8,593.6Z" fill="rgb(22,106,158)" shape-rendering="crispEdges" />
    <path d="M282.2,597.5L364.4,600.4L356.9,505.9Z" fill="rgb(115,141,177)" shape-rendering="crispEdges" />
    <path d="M184.3,67.7L248.3,153.6L290.4,44.2Z" fill="rgb(226,223,238)" shape-rendering="crispEdges" />
    <path d="M187.4,288.1L106.5,283.8L189.7,355.2Z" fill="rgb(179,200,225)" shape-rendering="crispEdges" />
    <path d="M364.4,600.4L422.5,637.2L425.1,581.3Z" fill="rgb(99,127,161)" shape-rendering="crispEdges" />
    <path d="M630.5,735.7L622.3,673.8L546,742.2Z" fill="rgb(63,110,145)" shape-rendering="crispEdges" />
    <path d="M622.3,673.8L538.2,639.1L546,742.2Z" fill="rgb(69,112,147)" shape-rendering="crispEdges" />
    <path d="M1000.2,276.2L1039.6,230.6L912.1,179.7Z" fill="rgb(105,144,188)" shape-rendering="crispEdges" />
    <path d="M987.3,126L1011.9,68.6L964.4,133.2Z" fill="rgb(135,158,196)" shape-rendering="crispEdges" />
    <path d="M1073.4,272.6L1000.2,276.2L1084.8,350.5Z" fill="rgb(77,130,174)" shape-rendering="crispEdges" />
    <path d="M851.5,628L858.7,599.1L770.8,593.6Z" fill="rgb(19,96,142)" shape-rendering="crispEdges" />
    <path d="M1067.4,56.2L1011.9,68.6L1089.3,117Z" fill="rgb(136,156,189)" shape-rendering="crispEdges" />
    <path d="M213,-36.2L184.3,67.7L290.4,44.2Z" fill="rgb(235,231,242)" shape-rendering="crispEdges" />
    <path d="M923.1,-115.1L868.4,-121.7L870,-12.8Z" fill="rgb(155,178,214)" shape-rendering="crispEdges" />
    <path d="M766.9,-78L868.4,-121.7L700.5,-97.8Z" fill="rgb(163,191,220)" shape-rendering="crispEdges" />
    <path d="M700.5,-97.8L868.4,-121.7L552.4,-101.9Z" fill="rgb(172,198,224)" shape-rendering="crispEdges" />
    <path d="M468.5,-105.5L237.9,-121.6L388.4,-105.3Z" fill="rgb(223,223,238)" shape-rendering="crispEdges" />
    <path d="M923.1,-115.1L870,-12.8L929.5,-25.2Z" fill="rgb(154,176,213)" shape-rendering="crispEdges" />
    <path d="M858.7,599.1L912.1,558.2L834.5,497.4Z" fill="rgb(13,104,160)" shape-rendering="crispEdges" />
    <path d="M1084.8,350.5L984.7,336.2L992.7,402.8Z" fill="rgb(52,123,172)" shape-rendering="crispEdges" />
    <path d="M708.9,649.2L760.3,656L770.8,593.6Z" fill="rgb(29,98,138)" shape-rendering="crispEdges" />
    <path d="M766.9,699.5L760.3,656L708.9,649.2Z" fill="rgb(30,99,138)" shape-rendering="crispEdges" />
    <path d="M184.3,67.7L159.6,132.5L248.3,153.6Z" fill="rgb(225,222,237)" shape-rendering="crispEdges" />
    <path d="M189.7,355.2L184.2,448.1L281,402.6Z" fill="rgb(148,180,213)" shape-rendering="crispEdges" />
    <path d="M282.2,597.5L344.3,641.8L364.4,600.4Z" fill="rgb(109,130,161)" shape-rendering="crispEdges" />
    <path d="M93.8,376.6L184.2,448.1L189.7,355.2Z" fill="rgb(155,186,217)" shape-rendering="crispEdges" />
    <path d="M106.5,283.8L187.4,288.1L102.5,210.8Z" fill="rgb(195,208,229)" shape-rendering="crispEdges" />
    <path d="M760.3,656L851.5,628L770.8,593.6Z" fill="rgb(23,95,137)" shape-rendering="crispEdges" />
    <path d="M858.7,599.1L926.1,653.8L912.1,558.2Z" fill="rgb(4,89,140)" shape-rendering="crispEdges" />
    <path d="M280.3,-39.1L213,-36.2L290.4,44.2Z" fill="rgb(235,231,242)" shape-rendering="crispEdges" />
    <path d="M184.3,67.7L137.6,126.4L159.6,132.5Z" fill="rgb(230,226,239)" shape-rendering="crispEdges" />
    <path d="M237.9,-121.6L213,-36.2L280.3,-39.1Z" fill="rgb(237,232,243)" shape-rendering="crispEdges" />
    <path d="M119.6,38.7L137.6,126.4L184.3,67.7Z" fill="rgb(236,231,242)" shape-rendering="crispEdges" />
    <path d="M159.6,132.5L137.6,126.4L164.7,187.2Z" fill="rgb(223,221,237)" shape-rendering="crispEdges" />
    <path d="M1084.8,350.5L992.7,402.8L1110.5,411.1Z" fill="rgb(37,116,164)" shape-rendering="crispEdges" />
    <path d="M1084.8,350.5L1000.2,276.2L984.7,336.2Z" fill="rgb(70,129,176)" shape-rendering="crispEdges" />
    <path d="M1039.6,230.6L1078.2,213.9L987.3,126Z" fill="rgb(114,144,184)" shape-rendering="crispEdges" />
    <path d="M364.4,600.4L344.3,641.8L422.5,637.2Z" fill="rgb(101,124,155)" shape-rendering="crispEdges" />
    <path d="M546,742.2L538.2,639.1L509.2,640.3Z" fill="rgb(76,114,148)" shape-rendering="crispEdges" />
    <path d="M282.2,597.5L356.9,505.9L252.7,484.1Z" fill="rgb(125,151,190)" shape-rendering="crispEdges" />
    <path d="M1039.8,-103.5L923.1,-115.1L929.5,-25.2Z" fill="rgb(151,172,206)" shape-rendering="crispEdges" />
    <path d="M205.9,603L282.2,597.5L252.7,484.1Z" fill="rgb(126,148,183)" shape-rendering="crispEdges" />
    <path d="M1073.4,272.6L1078.2,213.9L1039.6,230.6Z" fill="rgb(98,136,177)" shape-rendering="crispEdges" />
    <path d="M690.3,729.2L708.9,649.2L622.3,673.8Z" fill="rgb(48,104,142)" shape-rendering="crispEdges" />
    <path d="M690.3,729.2L766.9,699.5L708.9,649.2Z" fill="rgb(37,100,140)" shape-rendering="crispEdges" />
    <path d="M760.3,656L766.9,699.5L851.5,628Z" fill="rgb(23,94,136)" shape-rendering="crispEdges" />
    <path d="M102.5,210.8L187.4,288.1L164.7,187.2Z" fill="rgb(203,211,231)" shape-rendering="crispEdges" />
    <path d="M137.6,126.4L102.5,210.8L164.7,187.2Z" fill="rgb(218,218,235)" shape-rendering="crispEdges" />
    <path d="M1032.9,491.2L992.7,402.8L951.9,478.4Z" fill="rgb(13,108,167)" shape-rendering="crispEdges" />
    <path d="M1073.4,272.6L1152.9,203.2L1078.2,213.9Z" fill="rgb(98,132,170)" shape-rendering="crispEdges" />
    <path d="M546,742.2L509.2,640.3L473.1,755.3Z" fill="rgb(79,115,149)" shape-rendering="crispEdges" />
    <path d="M1067.4,56.2L1034.5,-7.8L1011.9,68.6Z" fill="rgb(142,162,194)" shape-rendering="crispEdges" />
    <path d="M1011.9,68.6L1034.5,-7.8L934.7,33.6Z" fill="rgb(146,166,200)" shape-rendering="crispEdges" />
    <path d="M630.5,735.7L690.3,729.2L622.3,673.8Z" fill="rgb(54,106,143)" shape-rendering="crispEdges" />
    <path d="M1089.3,117L1011.9,68.6L987.3,126Z" fill="rgb(133,156,191)" shape-rendering="crispEdges" />
    <path d="M106.1,524L180.7,517.7L184.2,448.1Z" fill="rgb(142,165,203)" shape-rendering="crispEdges" />
    <path d="M184.2,448.1L180.7,517.7L252.7,484.1Z" fill="rgb(138,164,204)" shape-rendering="crispEdges" />
    <path d="M1077.1,513.2L1032.9,491.2L1036.1,582.4Z" fill="rgb(4,93,146)" shape-rendering="crispEdges" />
    <path d="M1036.1,582.4L1032.9,491.2L951.9,478.4Z" fill="rgb(4,98,153)" shape-rendering="crispEdges" />
    <path d="M926.1,653.8L858.7,599.1L851.5,628Z" fill="rgb(8,86,133)" shape-rendering="crispEdges" />
    <path d="M1152.9,203.2L1089.3,117L1078.2,213.9Z" fill="rgb(113,137,173)" shape-rendering="crispEdges" />
    <path d="M1078.2,213.9L1089.3,117L987.3,126Z" fill="rgb(123,148,185)" shape-rendering="crispEdges" />
    <path d="M473.1,755.3L509.2,640.3L422.5,637.2Z" fill="rgb(86,118,150)" shape-rendering="crispEdges" />
    <path d="M388.4,-105.3L237.9,-121.6L364.8,-75.7Z" fill="rgb(227,226,239)" shape-rendering="crispEdges" />
    <path d="M213,-36.2L119.6,38.7L184.3,67.7Z" fill="rgb(241,235,244)" shape-rendering="crispEdges" />
    <path d="M51.2,101.3L48.9,203.9L102.5,210.8Z" fill="rgb(223,222,237)" shape-rendering="crispEdges" />
    <path d="M868.4,-121.7L237.9,-121.6L468.5,-105.5Z" fill="rgb(199,212,232)" shape-rendering="crispEdges" />
    <path d="M105.9,-47.8L119.6,38.7L213,-36.2Z" fill="rgb(246,239,247)" shape-rendering="crispEdges" />
    <path d="M28.2,355.5L93.8,376.6L106.5,283.8Z" fill="rgb(176,199,224)" shape-rendering="crispEdges" />
    <path d="M106.5,283.8L93.8,376.6L189.7,355.2Z" fill="rgb(173,197,223)" shape-rendering="crispEdges" />
    <path d="M888.2,747L851.5,628L766.9,699.5Z" fill="rgb(17,90,134)" shape-rendering="crispEdges" />
    <path d="M888.2,747L926.1,653.8L851.5,628Z" fill="rgb(6,84,131)" shape-rendering="crispEdges" />
    <path d="M352.9,727.9L389.4,724.9L344.3,641.8Z" fill="rgb(102,124,154)" shape-rendering="crispEdges" />
    <path d="M344.3,641.8L389.4,724.9L422.5,637.2Z" fill="rgb(99,123,153)" shape-rendering="crispEdges" />
    <path d="M266.7,672.1L344.3,641.8L282.2,597.5Z" fill="rgb(111,128,156)" shape-rendering="crispEdges" />
    <path d="M389.4,724.9L473.1,755.3L422.5,637.2Z" fill="rgb(93,120,152)" shape-rendering="crispEdges" />
    <path d="M546,742.2L473.1,755.3L630.5,735.7Z" fill="rgb(72,113,147)" shape-rendering="crispEdges" />
    <path d="M630.5,735.7L888.2,747L690.3,729.2Z" fill="rgb(33,99,139)" shape-rendering="crispEdges" />
    <path d="M93,552.3L205.9,603L180.7,517.7Z" fill="rgb(135,155,188)" shape-rendering="crispEdges" />
    <path d="M180.7,517.7L205.9,603L252.7,484.1Z" fill="rgb(133,155,192)" shape-rendering="crispEdges" />
    <path d="M1077.1,513.2L1110.5,411.1L1032.9,491.2Z" fill="rgb(5,98,154)" shape-rendering="crispEdges" />
    <path d="M1032.9,491.2L1110.5,411.1L992.7,402.8Z" fill="rgb(22,109,163)" shape-rendering="crispEdges" />
    <path d="M1174.1,274.7L1152.9,203.2L1073.4,272.6Z" fill="rgb(90,126,162)" shape-rendering="crispEdges" />
    <path d="M93.8,376.6L94.3,445.6L184.2,448.1Z" fill="rgb(153,181,215)" shape-rendering="crispEdges" />
    <path d="M205.9,603L266.7,672.1L282.2,597.5Z" fill="rgb(116,133,160)" shape-rendering="crispEdges" />
    <path d="M1153.4,4.6L1071.6,-39.1L1067.4,56.2Z" fill="rgb(141,158,185)" shape-rendering="crispEdges" />
    <path d="M1067.4,56.2L1071.6,-39.1L1034.5,-7.8Z" fill="rgb(145,163,193)" shape-rendering="crispEdges" />
    <path d="M1034.5,-7.8L1039.8,-103.5L929.5,-25.2Z" fill="rgb(149,169,201)" shape-rendering="crispEdges" />
    <path d="M266.7,672.1L352.9,727.9L344.3,641.8Z" fill="rgb(108,127,155)" shape-rendering="crispEdges" />
    <path d="M389.4,724.9L352.9,727.9L473.1,755.3Z" fill="rgb(96,122,153)" shape-rendering="crispEdges" />
    <path d="M51.2,101.3L102.5,210.8L137.6,126.4Z" fill="rgb(227,224,238)" shape-rendering="crispEdges" />
    <path d="M102.5,210.8L48.9,203.9L106.5,283.8Z" fill="rgb(206,214,233)" shape-rendering="crispEdges" />
    <path d="M93.8,376.6L61.7,452L94.3,445.6Z" fill="rgb(156,183,216)" shape-rendering="crispEdges" />
    <path d="M1036.1,582.4L951.9,478.4L912.1,558.2Z" fill="rgb(4,98,153)" shape-rendering="crispEdges" />
    <path d="M237.9,-121.6L159.5,-99.2L213,-36.2Z" fill="rgb(240,235,244)" shape-rendering="crispEdges" />
    <path d="M119.6,38.7L51.2,101.3L137.6,126.4Z" fill="rgb(237,232,243)" shape-rendering="crispEdges" />
    <path d="M1174.1,274.7L1073.4,272.6L1084.8,350.5Z" fill="rgb(74,123,163)" shape-rendering="crispEdges" />
    <path d="M1188.6,65.7L1153.4,4.6L1067.4,56.2Z" fill="rgb(134,150,176)" shape-rendering="crispEdges" />
    <path d="M1071.6,-39.1L1039.8,-103.5L1034.5,-7.8Z" fill="rgb(147,165,195)" shape-rendering="crispEdges" />
    <path d="M923.1,-115.1L1226.2,-115.8L868.4,-121.7Z" fill="rgb(149,168,201)" shape-rendering="crispEdges" />
    <path d="M926.1,653.8L1036.1,582.4L912.1,558.2Z" fill="rgb(4,86,135)" shape-rendering="crispEdges" />
    <path d="M22.1,38.9L51.2,101.3L119.6,38.7Z" fill="rgb(244,237,246)" shape-rendering="crispEdges" />
    <path d="M159.5,-99.2L105.9,-47.8L213,-36.2Z" fill="rgb(245,238,246)" shape-rendering="crispEdges" />
    <path d="M94.3,445.6L106.1,524L184.2,448.1Z" fill="rgb(146,170,210)" shape-rendering="crispEdges" />
    <path d="M205.9,603L172.6,664.5L266.7,672.1Z" fill="rgb(119,134,159)" shape-rendering="crispEdges" />
    <path d="M54.9,474.5L106.1,524L94.3,445.6Z" fill="rgb(148,171,209)" shape-rendering="crispEdges" />
    <path d="M1153.4,4.6L1077.5,-78.5L1071.6,-39.1Z" fill="rgb(142,158,185)" shape-rendering="crispEdges" />
    <path d="M1071.6,-39.1L1077.5,-78.5L1039.8,-103.5Z" fill="rgb(145,163,193)" shape-rendering="crispEdges" />
    <path d="M1168.9,351.6L1084.8,350.5L1110.5,411.1Z" fill="rgb(44,111,155)" shape-rendering="crispEdges" />
    <path d="M1168.9,351.6L1174.1,274.7L1084.8,350.5Z" fill="rgb(62,115,155)" shape-rendering="crispEdges" />
    <path d="M1152.9,203.2L1185.2,116.5L1089.3,117Z" fill="rgb(117,137,168)" shape-rendering="crispEdges" />
    <path d="M1183,529.3L1135.7,450.6L1077.1,513.2Z" fill="rgb(4,88,138)" shape-rendering="crispEdges" />
    <path d="M1077.1,513.2L1135.7,450.6L1110.5,411.1Z" fill="rgb(11,97,149)" shape-rendering="crispEdges" />
    <path d="M28.2,355.5L61.7,452L93.8,376.6Z" fill="rgb(161,191,220)" shape-rendering="crispEdges" />
    <path d="M1135.7,450.6L1168.9,351.6L1110.5,411.1Z" fill="rgb(28,104,149)" shape-rendering="crispEdges" />
    <path d="M9.8,282.9L106.5,283.8L48.9,203.9Z" fill="rgb(201,212,232)" shape-rendering="crispEdges" />
    <path d="M9.8,282.9L28.2,355.5L106.5,283.8Z" fill="rgb(187,206,228)" shape-rendering="crispEdges" />
    <path d="M690.3,729.2L888.2,747L766.9,699.5Z" fill="rgb(24,95,137)" shape-rendering="crispEdges" />
    <path d="M926.1,653.8L1031,657.4L1036.1,582.4Z" fill="rgb(3,76,120)" shape-rendering="crispEdges" />
    <path d="M473.1,755.3L888.2,747L630.5,735.7Z" fill="rgb(50,105,142)" shape-rendering="crispEdges" />
    <path d="M-17.4,291.3L9.8,282.9L-47.6,204Z" fill="rgb(204,215,233)" shape-rendering="crispEdges" />
    <path d="M-18.6,417.7L54.9,474.5L61.7,452Z" fill="rgb(156,181,215)" shape-rendering="crispEdges" />
    <path d="M61.7,452L54.9,474.5L94.3,445.6Z" fill="rgb(152,177,213)" shape-rendering="crispEdges" />
    <path d="M-18.6,417.7L61.7,452L28.2,355.5Z" fill="rgb(162,190,219)" shape-rendering="crispEdges" />
    <path d="M63.9,550.2L93,552.3L106.1,524Z" fill="rgb(142,162,195)" shape-rendering="crispEdges" />
    <path d="M106.1,524L93,552.3L180.7,517.7Z" fill="rgb(140,161,196)" shape-rendering="crispEdges" />
    <path d="M1211,121.8L1152.9,203.2L1235.2,195.4Z" fill="rgb(107,126,155)" shape-rendering="crispEdges" />
    <path d="M1211,121.8L1185.2,116.5L1152.9,203.2Z" fill="rgb(114,132,160)" shape-rendering="crispEdges" />
    <path d="M1188.6,65.7L1067.4,56.2L1089.3,117Z" fill="rgb(131,149,178)" shape-rendering="crispEdges" />
    <path d="M1036.1,582.4L1105.3,600.6L1077.1,513.2Z" fill="rgb(4,84,132)" shape-rendering="crispEdges" />
    <path d="M998.2,699.5L1031,657.4L926.1,653.8Z" fill="rgb(3,77,121)" shape-rendering="crispEdges" />
    <path d="M93,552.3L172.6,664.5L205.9,603Z" fill="rgb(127,143,170)" shape-rendering="crispEdges" />
    <path d="M266.7,672.1L238.1,735.9L352.9,727.9Z" fill="rgb(112,129,157)" shape-rendering="crispEdges" />
    <path d="M12.8,-7.4L22.1,38.9L119.6,38.7Z" fill="rgb(249,242,248)" shape-rendering="crispEdges" />
    <path d="M-47.6,204L9.8,282.9L48.9,203.9Z" fill="rgb(212,218,235)" shape-rendering="crispEdges" />
    <path d="M159.5,-99.2L92,-102.4L105.9,-47.8Z" fill="rgb(247,241,247)" shape-rendering="crispEdges" />
    <path d="M105.9,-47.8L12.8,-7.4L119.6,38.7Z" fill="rgb(250,243,249)" shape-rendering="crispEdges" />
    <path d="M237.9,-121.6L92,-102.4L159.5,-99.2Z" fill="rgb(244,238,246)" shape-rendering="crispEdges" />
    <path d="M941.1,754.2L998.2,699.5L926.1,653.8Z" fill="rgb(3,79,124)" shape-rendering="crispEdges" />
    <path d="M1185.2,116.5L1188.6,65.7L1089.3,117Z" fill="rgb(125,141,169)" shape-rendering="crispEdges" />
    <path d="M1104,715.3L1063.5,639.8L1031,657.4Z" fill="rgb(3,71,111)" shape-rendering="crispEdges" />
    <path d="M1031,657.4L1063.5,639.8L1036.1,582.4Z" fill="rgb(3,74,116)" shape-rendering="crispEdges" />
    <path d="M195.2,711.6L238.1,735.9L266.7,672.1Z" fill="rgb(117,133,159)" shape-rendering="crispEdges" />
    <path d="M352.9,727.9L238.1,735.9L473.1,755.3Z" fill="rgb(103,125,154)" shape-rendering="crispEdges" />
    <path d="M-47.6,204L48.9,203.9L-48.2,146.8Z" fill="rgb(224,224,239)" shape-rendering="crispEdges" />
    <path d="M9.8,282.9L-17.4,291.3L28.2,355.5Z" fill="rgb(189,208,229)" shape-rendering="crispEdges" />
    <path d="M54.9,474.5L63.9,550.2L106.1,524Z" fill="rgb(145,166,201)" shape-rendering="crispEdges" />
    <path d="M93,552.3L111.3,680.1L172.6,664.5Z" fill="rgb(126,139,163)" shape-rendering="crispEdges" />
    <path d="M172.6,664.5L195.2,711.6L266.7,672.1Z" fill="rgb(119,134,160)" shape-rendering="crispEdges" />
    <path d="M-31.1,512.5L63.9,550.2L54.9,474.5Z" fill="rgb(149,169,203)" shape-rendering="crispEdges" />
    <path d="M888.2,747L941.1,754.2L926.1,653.8Z" fill="rgb(3,82,129)" shape-rendering="crispEdges" />
    <path d="M1176.4,676.1L1105.3,600.6L1063.5,639.8Z" fill="rgb(3,65,103)" shape-rendering="crispEdges" />
    <path d="M473.1,755.3L941.1,754.2L888.2,747Z" fill="rgb(26,96,137)" shape-rendering="crispEdges" />
    <path d="M137.1,738.8L195.2,711.6L172.6,664.5Z" fill="rgb(123,137,161)" shape-rendering="crispEdges" />
    <path d="M1235.2,195.4L1152.9,203.2L1236.6,254.6Z" fill="rgb(95,121,152)" shape-rendering="crispEdges" />
    <path d="M1185.2,116.5L1216.6,74.5L1188.6,65.7Z" fill="rgb(123,138,162)" shape-rendering="crispEdges" />
    <path d="M1063.5,639.8L1105.3,600.6L1036.1,582.4Z" fill="rgb(3,75,118)" shape-rendering="crispEdges" />
    <path d="M1251.5,333.1L1174.1,274.7L1168.9,351.6Z" fill="rgb(61,109,145)" shape-rendering="crispEdges" />
    <path d="M26.6,-98.5L12.8,-7.4L105.9,-47.8Z" fill="rgb(252,244,250)" shape-rendering="crispEdges" />
    <path d="M-48.2,146.8L48.9,203.9L51.2,101.3Z" fill="rgb(232,228,240)" shape-rendering="crispEdges" />
    <path d="M1236.6,254.6L1152.9,203.2L1174.1,274.7Z" fill="rgb(88,120,153)" shape-rendering="crispEdges" />
    <path d="M1236.6,254.6L1174.1,274.7L1251.5,333.1Z" fill="rgb(73,113,147)" shape-rendering="crispEdges" />
    <path d="M1225.8,424.1L1168.9,351.6L1135.7,450.6Z" fill="rgb(26,98,141)" shape-rendering="crispEdges" />
    <path d="M1300.5,123.8L1216.6,74.5L1211,121.8Z" fill="rgb(120,135,160)" shape-rendering="crispEdges" />
    <path d="M1211,121.8L1216.6,74.5L1185.2,116.5Z" fill="rgb(120,135,160)" shape-rendering="crispEdges" />
    <path d="M1188.6,65.7L1224.4,-45.5L1153.4,4.6Z" fill="rgb(133,146,168)" shape-rendering="crispEdges" />
    <path d="M1176.4,676.1L1141.9,578L1105.3,600.6Z" fill="rgb(2,65,102)" shape-rendering="crispEdges" />
    <path d="M1105.3,600.6L1141.9,578L1077.1,513.2Z" fill="rgb(3,80,126)" shape-rendering="crispEdges" />
    <path d="M1104,715.3L1031,657.4L998.2,699.5Z" fill="rgb(3,73,115)" shape-rendering="crispEdges" />
    <path d="M-50,336.4L-18.6,417.7L28.2,355.5Z" fill="rgb(172,198,224)" shape-rendering="crispEdges" />
    <path d="M-48.2,146.8L51.2,101.3L-61.6,60.4Z" fill="rgb(241,236,245)" shape-rendering="crispEdges" />
    <path d="M-17.4,291.3L-50,336.4L28.2,355.5Z" fill="rgb(184,205,228)" shape-rendering="crispEdges" />
    <path d="M-61.6,60.4L51.2,101.3L22.1,38.9Z" fill="rgb(247,240,247)" shape-rendering="crispEdges" />
    <path d="M1141.9,578L1183,529.3L1077.1,513.2Z" fill="rgb(3,82,128)" shape-rendering="crispEdges" />
    <path d="M1183,529.3L1225.8,424.1L1135.7,450.6Z" fill="rgb(5,86,134)" shape-rendering="crispEdges" />
    <path d="M-86.5,364.5L-50,336.4L-117.1,266.2Z" fill="rgb(186,206,228)" shape-rendering="crispEdges" />
    <path d="M-117.1,266.2L-50,336.4L-17.4,291.3Z" fill="rgb(193,210,230)" shape-rendering="crispEdges" />
    <path d="M13.8,637.6L93,552.3L63.9,550.2Z" fill="rgb(138,155,183)" shape-rendering="crispEdges" />
    <path d="M13.8,637.6L111.3,680.1L93,552.3Z" fill="rgb(130,143,167)" shape-rendering="crispEdges" />
    <path d="M195.2,711.6L137.1,738.8L238.1,735.9Z" fill="rgb(121,135,160)" shape-rendering="crispEdges" />
    <path d="M1225.8,424.1L1251.5,333.1L1168.9,351.6Z" fill="rgb(41,102,140)" shape-rendering="crispEdges" />
    <path d="M1236.6,254.6L1290.7,202.4L1235.2,195.4Z" fill="rgb(95,121,152)" shape-rendering="crispEdges" />
    <path d="M92,-102.4L26.6,-98.5L105.9,-47.8Z" fill="rgb(250,243,249)" shape-rendering="crispEdges" />
    <path d="M12.8,-7.4L-61.6,60.4L22.1,38.9Z" fill="rgb(251,244,249)" shape-rendering="crispEdges" />
    <path d="M-58.8,-123.1L26.6,-98.5L92,-102.4Z" fill="rgb(254,246,250)" shape-rendering="crispEdges" />
    <path d="M1224.4,-45.5L1178.1,-93.1L1153.4,4.6Z" fill="rgb(135,147,169)" shape-rendering="crispEdges" />
    <path d="M1153.4,4.6L1178.1,-93.1L1077.5,-78.5Z" fill="rgb(139,154,178)" shape-rendering="crispEdges" />
    <path d="M1077.5,-78.5L1178.1,-93.1L1039.8,-103.5Z" fill="rgb(142,158,186)" shape-rendering="crispEdges" />
    <path d="M1039.8,-103.5L1226.2,-115.8L923.1,-115.1Z" fill="rgb(145,163,193)" shape-rendering="crispEdges" />
    <path d="M50.4,741L137.1,738.8L111.3,680.1Z" fill="rgb(127,141,163)" shape-rendering="crispEdges" />
    <path d="M111.3,680.1L137.1,738.8L172.6,664.5Z" fill="rgb(125,139,162)" shape-rendering="crispEdges" />
    <path d="M238.1,735.9L137.1,738.8L473.1,755.3Z" fill="rgb(112,129,157)" shape-rendering="crispEdges" />
    <path d="M-40.5,-37.9L-61.6,60.4L12.8,-7.4Z" fill="rgb(254,246,251)" shape-rendering="crispEdges" />
    <path d="M-117.1,266.2L-17.4,291.3L-47.6,204Z" fill="rgb(206,215,234)" shape-rendering="crispEdges" />
    <path d="M1216.6,74.5L1224.4,-45.5L1188.6,65.7Z" fill="rgb(130,142,164)" shape-rendering="crispEdges" />
    <path d="M1311.9,-3L1224.4,-45.5L1216.6,74.5Z" fill="rgb(132,145,166)" shape-rendering="crispEdges" />
    <path d="M1300.5,123.8L1211,121.8L1235.2,195.4Z" fill="rgb(113,129,157)" shape-rendering="crispEdges" />
    <path d="M-90.3,420.8L-31.1,512.5L-18.6,417.7Z" fill="rgb(158,182,216)" shape-rendering="crispEdges" />
    <path d="M-18.6,417.7L-31.1,512.5L54.9,474.5Z" fill="rgb(155,178,214)" shape-rendering="crispEdges" />
    <path d="M1318.6,288.2L1236.6,254.6L1251.5,333.1Z" fill="rgb(71,112,147)" shape-rendering="crispEdges" />
    <path d="M1318.6,288.2L1290.7,202.4L1236.6,254.6Z" fill="rgb(86,118,150)" shape-rendering="crispEdges" />
    <path d="M26.6,-98.5L-40.5,-37.9L12.8,-7.4Z" fill="rgb(255,247,251)" shape-rendering="crispEdges" />
    <path d="M1141.9,578L1220.3,569.7L1183,529.3Z" fill="rgb(3,73,115)" shape-rendering="crispEdges" />
    <path d="M941.1,754.2L1104,715.3L998.2,699.5Z" fill="rgb(3,75,118)" shape-rendering="crispEdges" />
    <path d="M-108,150.7L-47.6,204L-48.2,146.8Z" fill="rgb(229,227,240)" shape-rendering="crispEdges" />
    <path d="M-50,336.4L-86.5,364.5L-18.6,417.7Z" fill="rgb(171,198,223)" shape-rendering="crispEdges" />
    <path d="M1216.8,658.6L1220.3,569.7L1141.9,578Z" fill="rgb(2,63,98)" shape-rendering="crispEdges" />
    <path d="M1183,529.3L1263.4,513.6L1225.8,424.1Z" fill="rgb(3,81,127)" shape-rendering="crispEdges" />
    <path d="M1340,342.3L1318.6,288.2L1251.5,333.1Z" fill="rgb(61,109,145)" shape-rendering="crispEdges" />
    <path d="M-59.9,562.3L63.9,550.2L-31.1,512.5Z" fill="rgb(147,166,197)" shape-rendering="crispEdges" />
    <path d="M-59.9,562.3L13.8,637.6L63.9,550.2Z" fill="rgb(141,156,183)" shape-rendering="crispEdges" />
    <path d="M1290.7,202.4L1300.5,123.8L1235.2,195.4Z" fill="rgb(106,126,155)" shape-rendering="crispEdges" />
    <path d="M-112.4,66.6L-108,150.7L-61.6,60.4Z" fill="rgb(243,237,245)" shape-rendering="crispEdges" />
    <path d="M-61.6,60.4L-108,150.7L-48.2,146.8Z" fill="rgb(238,233,243)" shape-rendering="crispEdges" />
    <path d="M-137.1,475.9L-90.3,420.8L-86.5,364.5Z" fill="rgb(162,188,219)" shape-rendering="crispEdges" />
    <path d="M-86.5,364.5L-90.3,420.8L-18.6,417.7Z" fill="rgb(164,193,221)" shape-rendering="crispEdges" />
    <path d="M-127.5,179.1L-117.1,266.2L-47.6,204Z" fill="rgb(216,220,236)" shape-rendering="crispEdges" />
    <path d="M1314.6,-89.5L1226.2,-115.8L1224.4,-45.5Z" fill="rgb(133,145,166)" shape-rendering="crispEdges" />
    <path d="M1224.4,-45.5L1226.2,-115.8L1178.1,-93.1Z" fill="rgb(133,145,166)" shape-rendering="crispEdges" />
    <path d="M1178.1,-93.1L1226.2,-115.8L1039.8,-103.5Z" fill="rgb(138,152,176)" shape-rendering="crispEdges" />
    <path d="M1220.3,569.7L1263.4,513.6L1183,529.3Z" fill="rgb(3,74,117)" shape-rendering="crispEdges" />
    <path d="M1290.7,202.4L1327.7,73.9L1300.5,123.8Z" fill="rgb(115,131,158)" shape-rendering="crispEdges" />
    <path d="M1305,432.8L1251.5,333.1L1225.8,424.1Z" fill="rgb(28,98,138)" shape-rendering="crispEdges" />
    <path d="M1220.3,569.7L1324.3,569.9L1263.4,513.6Z" fill="rgb(3,73,114)" shape-rendering="crispEdges" />
    <path d="M1104,715.3L1176.4,676.1L1063.5,639.8Z" fill="rgb(3,65,103)" shape-rendering="crispEdges" />
    <path d="M-112.4,66.6L-127.5,179.1L-108,150.7Z" fill="rgb(236,231,242)" shape-rendering="crispEdges" />
    <path d="M-108,150.7L-127.5,179.1L-47.6,204Z" fill="rgb(226,225,239)" shape-rendering="crispEdges" />
    <path d="M-123.5,-18.9L-112.4,66.6L-61.6,60.4Z" fill="rgb(251,243,249)" shape-rendering="crispEdges" />
    <path d="M1263.4,513.6L1305,432.8L1225.8,424.1Z" fill="rgb(10,86,132)" shape-rendering="crispEdges" />
    <path d="M-137.1,475.9L-59.9,562.3L-31.1,512.5Z" fill="rgb(150,170,203)" shape-rendering="crispEdges" />
    <path d="M-20.5,704.7L50.4,741L13.8,637.6Z" fill="rgb(133,145,166)" shape-rendering="crispEdges" />
    <path d="M13.8,637.6L50.4,741L111.3,680.1Z" fill="rgb(130,143,164)" shape-rendering="crispEdges" />
    <path d="M137.1,738.8L50.4,741L473.1,755.3Z" fill="rgb(118,133,159)" shape-rendering="crispEdges" />
    <path d="M-59.9,562.3L-28.8,639.4L13.8,637.6Z" fill="rgb(136,149,172)" shape-rendering="crispEdges" />
    <path d="M1318.6,288.2L1327.7,73.9L1290.7,202.4Z" fill="rgb(103,125,154)" shape-rendering="crispEdges" />
    <path d="M1300.5,123.8L1327.7,73.9L1216.6,74.5Z" fill="rgb(122,137,161)" shape-rendering="crispEdges" />
    <path d="M1176.4,676.1L1216.8,658.6L1141.9,578Z" fill="rgb(2,58,92)" shape-rendering="crispEdges" />
    <path d="M1263.4,513.6L1332.8,483L1305,432.8Z" fill="rgb(3,83,130)" shape-rendering="crispEdges" />
    <path d="M1188.1,699.6L1216.8,658.6L1176.4,676.1Z" fill="rgb(2,57,89)" shape-rendering="crispEdges" />
    <path d="M1305,432.8L1340,342.3L1251.5,333.1Z" fill="rgb(41,102,140)" shape-rendering="crispEdges" />
    <path d="M1318.6,288.2L1340,342.3L1327.7,73.9Z" fill="rgb(90,119,151)" shape-rendering="crispEdges" />
    <path d="M26.6,-98.5L-58.8,-123.1L-40.5,-37.9Z" fill="rgb(255,247,251)" shape-rendering="crispEdges" />
    <path d="M-40.5,-37.9L-123.5,-18.9L-61.6,60.4Z" fill="rgb(255,247,251)" shape-rendering="crispEdges" />
    <path d="M237.9,-121.6L-58.8,-123.1L92,-102.4Z" fill="rgb(249,242,248)" shape-rendering="crispEdges" />
    <path d="M868.4,-121.7L-58.8,-123.1L237.9,-121.6Z" fill="rgb(225,224,239)" shape-rendering="crispEdges" />
    <path d="M1240.3,704.7L1188.1,699.6L1104,715.3Z" fill="rgb(2,58,92)" shape-rendering="crispEdges" />
    <path d="M1104,715.3L1188.1,699.6L1176.4,676.1Z" fill="rgb(2,61,95)" shape-rendering="crispEdges" />
    <path d="M1327.7,73.9L1311.9,-3L1216.6,74.5Z" fill="rgb(128,141,164)" shape-rendering="crispEdges" />
    <path d="M-125.4,-87L-123.5,-18.9L-40.5,-37.9Z" fill="rgb(255,247,251)" shape-rendering="crispEdges" />
    <path d="M-112.4,66.6L-123.5,-18.9L-127.5,179.1Z" fill="rgb(246,239,247)" shape-rendering="crispEdges" />
    <path d="M-117.1,266.2L-137.1,475.9L-86.5,364.5Z" fill="rgb(173,198,224)" shape-rendering="crispEdges" />
    <path d="M-90.3,420.8L-137.1,475.9L-31.1,512.5Z" fill="rgb(155,177,214)" shape-rendering="crispEdges" />
    <path d="M-59.9,562.3L-137.5,588.3L-28.8,639.4Z" fill="rgb(139,154,178)" shape-rendering="crispEdges" />
    <path d="M-127.5,179.1L-137.1,475.9L-117.1,266.2Z" fill="rgb(190,208,230)" shape-rendering="crispEdges" />
    <path d="M-125.4,-87L-137.1,475.9L-127.5,179.1Z" fill="rgb(223,224,238)" shape-rendering="crispEdges" />
    <path d="M1324.3,569.9L1332.8,483L1263.4,513.6Z" fill="rgb(3,77,120)" shape-rendering="crispEdges" />
    <path d="M1305,432.8L1332.8,483L1340,342.3Z" fill="rgb(22,93,136)" shape-rendering="crispEdges" />
    <path d="M-110.3,730.5L-20.5,704.7L-28.8,639.4Z" fill="rgb(133,145,166)" shape-rendering="crispEdges" />
    <path d="M-28.8,639.4L-20.5,704.7L13.8,637.6Z" fill="rgb(133,145,166)" shape-rendering="crispEdges" />
    <path d="M1327.7,73.9L1314.6,-89.5L1311.9,-3Z" fill="rgb(133,145,166)" shape-rendering="crispEdges" />
    <path d="M1311.9,-3L1314.6,-89.5L1224.4,-45.5Z" fill="rgb(133,145,166)" shape-rendering="crispEdges" />
    <path d="M-58.8,-123.1L-125.4,-87L-40.5,-37.9Z" fill="rgb(255,247,251)" shape-rendering="crispEdges" />
    <path d="M-123.5,-18.9L-125.4,-87L-127.5,179.1Z" fill="rgb(252,245,250)" shape-rendering="crispEdges" />
    <path d="M1188.1,699.6L1240.3,704.7L1216.8,658.6Z" fill="rgb(2,56,88)" shape-rendering="crispEdges" />
    <path d="M1288.9,680L1324.3,569.9L1220.3,569.7Z" fill="rgb(2,61,96)" shape-rendering="crispEdges" />
    <path d="M1328.6,717.2L1240.3,704.7L1104,715.3Z" fill="rgb(2,56,88)" shape-rendering="crispEdges" />
    <path d="M1288.9,680L1220.3,569.7L1216.8,658.6Z" fill="rgb(2,56,88)" shape-rendering="crispEdges" />
    <path d="M-137.1,475.9L-137.5,588.3L-59.9,562.3Z" fill="rgb(147,166,197)" shape-rendering="crispEdges" />
    <path d="M1240.3,704.7L1288.9,680L1216.8,658.6Z" fill="rgb(2,56,88)" shape-rendering="crispEdges" />
    <path d="M-137.5,588.3L-136.9,654.1L-28.8,639.4Z" fill="rgb(134,146,167)" shape-rendering="crispEdges" />
    <path d="M-20.5,704.7L-110.3,730.5L50.4,741Z" fill="rgb(133,145,166)" shape-rendering="crispEdges" />
    <path d="M-136.9,654.1L-110.3,730.5L-28.8,639.4Z" fill="rgb(133,145,166)" shape-rendering="crispEdges" />
    <path d="M941.1,754.2L1328.6,717.2L1104,715.3Z" fill="rgb(2,64,101)" shape-rendering="crispEdges" />
    <path d="M1240.3,704.7L1328.6,717.2L1288.9,680Z" fill="rgb(2,56,88)" shape-rendering="crispEdges" />
    <path d="M1288.9,680L1328.6,717.2L1324.3,569.9Z" fill="rgb(2,56,88)" shape-rendering="crispEdges" />
    <path d="M1324.3,569.9L1328.6,717.2L1332.8,483Z" fill="rgb(2,64,101)" shape-rendering="crispEdges" />
    <path d="M1332.8,483L1328.6,717.2L1340,342.3Z" fill="rgb(3,78,122)" shape-rendering="crispEdges" />
</svg>